<svg width="32" height="32" viewBox="0 0 48 113" xmlns="http://www.w3.org/2000/svg">
<path d="M24.53 59.303c6.764.01 12.255-5.488 12.266-12.282.011-6.793-5.463-12.31-12.226-12.32-6.763-.01-12.255 5.488-12.265 12.281-.012 6.793 5.463 12.31 12.226 12.32zm.085-52.347c-2.959-.005-5.36 2.4-5.366 5.371-.004 2.972 2.39 5.384 5.348 5.39 2.958.004 5.36-2.4 5.365-5.372.005-2.972-2.39-5.385-5.347-5.39zM.129 2.6A2.607 2.607 0 012.727 0L45.41.069A2.607 2.607 0 0148 2.679l-.13 80.894a2.607 2.607 0 01-2.597 2.602l-5.2-.01-.038 24.234A2.6 2.6 0 0137.437 113l-27.097-.044a2.6 2.6 0 01-2.59-2.61l.039-24.232-5.2-.008A2.607 2.607 0 010 83.496L.13 2.601z" fill="#000" fill-opacity=".4"/>
</svg>

